<svg width="720" height="720" viewBox="0 0 720 720" fill="none" xmlns="http://www.w3.org/2000/svg">
<path d="M163.501 126.263C172.174 123.857 171.306 138.73 172.592 140.118C176.629 144.51 175.344 134.38 177.969 135.513C179.496 139.361 181.024 143.208 182.551 147.056C184.355 145.491 186.159 143.924 187.963 142.359C195.133 150.385 204.114 147.82 212.606 153.116C227.96 200.648 238.75 249.616 243.186 300.918C246.456 338.786 248.129 381.882 248.057 425.22C264.329 407.585 278.714 394.153 288.249 389.54C290.835 388.283 292.194 386.185 294.606 388.779C292.166 391.812 289.727 394.845 287.288 397.877C290.276 398.723 293.265 399.568 296.253 400.414C291.502 407.453 286.75 414.492 281.999 421.531C288.271 416.687 294.544 411.843 300.816 407C301.28 408.612 301.742 410.225 302.206 411.837C306.216 403.505 313.645 399.803 320.85 396.38C316.687 393.649 313.389 390.842 311.262 387.987C310.056 386.375 308.791 386.248 309.318 382.861C311.265 383.458 313.212 384.056 315.159 384.653C314.851 382.245 314.542 379.837 314.234 377.429C314.087 376.772 313.94 376.114 313.794 375.457C311.893 375.14 309.993 374.823 308.092 374.506C303.616 367.917 295.283 364.385 289.072 358.155C286.039 332.689 287.269 308.968 294.505 287.553C305.812 254.123 328.345 215.51 353.177 190.088C367.436 175.487 415.077 128.911 439.257 127.875C441.167 127.79 441.817 126.918 444.524 129C443.176 130.141 441.828 131.282 440.481 132.422C443.253 133.643 446.026 134.865 448.799 136.085C446.452 138.957 444.105 141.828 441.758 144.7C445.949 143.462 450.141 142.225 454.332 140.988C455.126 142.027 455.92 143.067 456.714 144.107C458.465 139.337 466.643 140.091 472.927 139.636C473.52 139.816 473.965 140.002 474.289 140.189C476.883 141.687 471.677 143.344 471.446 143.869C471.297 144.207 476.144 148.857 471.868 151.163C474.721 149.776 477.573 148.389 480.425 147.002C482.191 147.395 483.957 147.788 485.723 148.181C482.877 151.918 480.031 155.655 477.185 159.392C480.311 161.001 480.908 157.505 484.109 158.189C486.439 158.681 488.531 160.165 490.642 161.396C488.133 164.562 485.621 167.729 483.111 170.895C486.024 170.654 488.938 170.411 491.85 170.17C474.084 192.115 448.99 209.011 429.018 229.416C404.722 254.271 386.857 286.602 373.148 317.965C371.212 322.395 369.361 326.878 367.593 331.407C385.145 336.516 402.641 342.22 420.301 346.089C429.917 348.19 439.761 349.739 449.726 350.824L478.746 379.856C475.38 410.797 476.474 442.914 479.349 473.073C482.554 506.636 489.216 540.317 499.229 573.247C498.022 571.689 496.814 570.131 495.607 568.573C491.064 567.086 492.422 571.219 491.119 570.903C489.012 569.736 486.906 568.568 484.799 567.401C484.787 569.744 484.776 572.088 484.764 574.431C481.753 572.873 478.739 571.313 475.727 569.755V576.773C467.056 577.991 467.924 570.459 466.639 569.755C462.601 567.53 463.886 572.661 461.261 572.087C459.734 570.138 458.207 568.19 456.68 566.241C454.876 567.034 453.072 567.827 451.268 568.62C444.098 564.555 435.116 565.855 426.625 563.173C411.271 539.099 400.479 514.298 396.043 488.315C392.667 468.513 390.993 445.889 391.184 423.221C373.582 418.453 353.367 412.193 337.337 405.081C331.793 413.565 326.251 422.051 320.708 430.535C323.946 431.95 326.73 424.664 330.594 424.199C333.409 423.849 335.343 425.607 337.447 426.85C332.311 434.566 327.175 442.284 322.039 450C326.045 447.863 330.053 445.725 334.06 443.588C305.404 486.223 272.422 525.164 240.956 565.376C240.583 568.74 240.147 572.609 239.649 576.907L233.315 575.208C228.522 581.426 223.778 587.685 219.101 594L155.331 576.907C155.473 575.665 155.614 574.422 155.752 573.179C156.42 567.133 157.033 561.041 157.592 554.91L146.079 551.825C149.929 546.642 154.373 540.702 159.268 534.225C164.056 467.332 163.057 396.811 159.88 331.008C156.675 264.742 150.013 198.242 140 133.225C141.207 136.301 142.415 139.377 143.622 142.453C148.166 145.39 146.808 137.227 148.112 137.852C150.218 140.156 152.325 142.461 154.431 144.766C154.443 140.14 154.454 135.514 154.466 130.888C157.478 133.964 160.49 137.041 163.501 140.118V126.263ZM325.511 399.209C323.917 400.895 322.185 402.449 321.914 402.976C321.524 403.732 325.32 410.205 318.329 417.218C322.907 412.84 327.485 408.462 332.063 404.084C332.895 403.996 333.727 403.907 334.559 403.819C331.323 402.315 328.286 400.778 325.511 399.209Z" fill="white"/>
<path d="M579 350.565C579 396.155 542.058 433.113 496.487 433.113C450.917 433.113 413.975 396.155 413.975 350.565C413.975 304.975 450.917 268.017 496.487 268.017C542.058 268.017 579 304.975 579 350.565Z" fill="#D24747"/>
</svg>
